<svg width="28" height="32" viewBox="0 0 28 32" fill="none" xmlns="http://www.w3.org/2000/svg">
<path d="M26.6299 24.9377C26.1416 26.0557 25.5635 27.0848 24.8938 28.031C23.9809 29.3208 23.2334 30.2136 22.6574 30.7094C21.7644 31.5232 20.8076 31.94 19.7831 31.9637C19.0476 31.9637 18.1606 31.7563 17.1281 31.3355C16.0922 30.9168 15.1402 30.7094 14.2697 30.7094C13.3568 30.7094 12.3777 30.9168 11.3305 31.3355C10.2816 31.7563 9.43668 31.9755 8.79067 31.9973C7.80819 32.0387 6.8289 31.6101 5.85141 30.7094C5.22752 30.1702 4.44716 29.2457 3.51232 27.9361C2.50931 26.5377 1.6847 24.916 1.03869 23.0672C0.346827 21.0702 0 19.1364 0 17.2643C0 15.1197 0.467618 13.2701 1.40425 11.7201C2.14036 10.4751 3.11965 9.49305 4.3453 8.77208C5.57096 8.05112 6.89528 7.68372 8.32145 7.66022C9.10181 7.66022 10.1252 7.89942 11.3969 8.36953C12.665 8.84122 13.4792 9.08042 13.8362 9.08042C14.1031 9.08042 15.0076 8.80072 16.5411 8.24311C17.9911 7.72599 19.215 7.51188 20.2176 7.59622C22.9344 7.8135 24.9755 8.8748 26.3329 10.7868C23.9032 12.2458 22.7012 14.2892 22.7251 16.9105C22.7471 18.9523 23.4945 20.6514 24.9636 22.0005C25.6293 22.6267 26.3728 23.1106 27.2 23.4543C27.0206 23.9698 26.8313 24.4637 26.6299 24.9377ZM20.399 0.640182C20.399 2.24055 19.809 3.7348 18.633 5.11787C17.2138 6.76207 15.4972 7.71216 13.6357 7.56224C13.612 7.37025 13.5982 7.16818 13.5982 6.95584C13.5982 5.41949 14.2731 3.7753 15.4717 2.43094C16.07 1.75027 16.8311 1.1843 17.754 0.732821C18.6748 0.288073 19.5459 0.0421187 20.3651 0C20.389 0.213944 20.399 0.427901 20.399 0.640162V0.640182Z" fill="white"/>
</svg>
