<svg width="32" height="32" viewBox="0 0 32 32" fill="none" xmlns="http://www.w3.org/2000/svg">
<path d="M4 14.9091V17.091C4 18.1956 3.10456 19.091 2 19.091C0.895437 19.091 0 18.1956 0 17.091V14.9091C0 13.8045 0.895437 12.9091 2 12.9091C3.10456 12.9091 4 13.8045 4 14.9091Z" fill="white"/>
<path d="M28.0008 14.966C28.0003 14.947 28 14.928 28 14.9091C28 13.8045 28.8954 12.9091 30 12.9091C31.1046 12.9091 32 13.8045 32 14.9091C32 14.9281 31.9997 14.9471 31.9992 14.966L32 17.1478C31.97 18.2261 31.0856 19.0909 30 19.0909C28.9144 19.0909 28.0309 18.2261 28.0008 17.1478V14.966Z" fill="white"/>
<path d="M10.9091 21.4546V23.6364C10.9091 24.7409 10.0137 25.6364 8.90906 25.6364C7.80444 25.6364 6.90906 24.7409 6.90906 23.6364V21.4545C6.90906 20.35 7.8045 19.4545 8.90906 19.4545C10.0136 19.4545 10.9091 20.3501 10.9091 21.4546ZM10.9091 8.36362V15.5C10.8849 16.5836 9.99844 17.4546 8.90906 17.4546C7.81969 17.4546 6.93375 16.5836 6.90963 15.5L6.90906 8.36362C6.90906 7.25906 7.8045 6.36363 8.90906 6.36363C10.0136 6.36363 10.9091 7.25906 10.9091 8.36362Z" fill="white"/>
<path d="M21.0909 10.5455C21.0909 11.65 21.9863 12.5455 23.0909 12.5455C24.1956 12.5455 25.0909 11.65 25.0909 10.5455V8.36363C25.0909 7.25907 24.1955 6.36363 23.0909 6.36363C21.9864 6.36363 21.0909 7.25907 21.0909 8.36363V10.5455Z" fill="white"/>
<path d="M14 4.18188C14 5.28638 14.8954 6.18188 16 6.18188C17.1046 6.18188 18 5.28638 18 4.18188V2C18 0.895437 17.1046 0 16 0C14.8954 0 14 0.895437 14 2V4.18188ZM14 27.8181C14 26.7136 14.8954 25.8181 16 25.8181C17.1046 25.8181 18 26.7136 18 27.8181V30C18 31.1046 17.1046 32 16 32C14.8954 32 14 31.1046 14 30V27.8181Z" fill="white"/>
<path d="M21.0909 16.5454C21.0909 15.4409 21.9863 14.5454 23.0909 14.5454C24.1956 14.5454 25.0909 15.4409 25.0909 16.5454V23.6364C25.0909 24.7409 24.1955 25.6364 23.0909 25.6364C21.9864 25.6364 21.0909 24.7409 21.0909 23.6364V16.5454Z" fill="white"/>
<path d="M18 10.1819V21.8181C18 22.9227 17.1046 23.8181 16 23.8181C14.8954 23.8181 14 22.9227 14 21.8181V10.1819C14 9.07725 14.8954 8.18188 16 8.18188C17.1046 8.18188 18 9.07725 18 10.1819Z" fill="white"/>
</svg>
