<svg width="151" height="151" viewBox="0 0 151 151" fill="none" xmlns="http://www.w3.org/2000/svg">
<path d="M74.4 42.4C82.9 42.4 89.5 35.9 89.5 27.4C89.5 19.1 82.9 12.4 74.6 12.4C66.1 12.4 59.5 18.9 59.5 27.3C59.4 35.8 65.9 42.4 74.4 42.4Z" fill="#FEFEFE"/>
<path d="M61.9 149.6C59.6828 149.277 57.4609 148.826 55.2466 148.252C58.7051 149.207 62.2327 149.907 65.8 150.335C73.8856 151.284 81.6614 150.987 88.9996 149.638C88.9932 149.065 88.9 148.579 88.9 148V90.1C88.9 79.6 89 69.1 89 58.5C89 55.1 88.1 52 85.1 50.3C83.4 49.3 81.3 48.6 79.3 48.5C66 48.3 52.7 48.4 39.5 48.4C38.1 48.4 37.7 48.9 37.7 50.3C37.8 57.9 37.8 65.5 37.7 73.1C37.7 74.5 38.1 74.9 39.5 74.9C46.1 74.8 52.7 74.9 59.3 74.9C61.6 74.9 61.6 74.9 61.6 77.3C61.6 100.8 61.7 124.3 61.7 147.7C61.9 148.4 61.9 149 61.9 149.6Z" fill="#FEFEFE"/>
</svg>
